<svg width="148" height="143" fill="none" xmlns="http://www.w3.org/2000/svg"><path d="M28.918 138.868a21.49 21.49 0 0 0 12.67 4.119c6.633 0 13.18-3.038 17.392-8.747a.56.56 0 0 0 .034-.038l.03-.04.014-.021.03-.041 14.906-20.51 14.907 20.51c.015.022.03.039.045.058a.68.68 0 0 1 .02.028c7.021 9.569 20.513 11.677 30.116 4.692 9.613-6.984 11.763-20.488 4.828-30.132l-.015-.024c-.013-.02-.023-.036-.039-.052l-14.874-20.521 24.099-7.85c11.32-3.686 17.542-15.914 13.858-27.245-3.682-11.331-15.889-17.559-27.22-13.883L95.62 46.99l-.01-25.376C95.597 9.698 85.908 0 74.004 0 62.102 0 52.412 9.698 52.402 21.624l-.022 25.354-24.1-7.817a.244.244 0 0 1-.076-.022c-11.307-3.633-23.47 2.595-27.143 13.904-3.673 11.31 2.506 23.494 13.772 27.214l.03.01.039.016.018.006 24.088 7.85-14.874 20.521-.022.032a.282.282 0 0 0-.021.032c-6.946 9.644-4.785 23.159 4.828 30.144Z" fill="#2F80ED"/></svg>