<svg width="172" height="172" fill="none" xmlns="http://www.w3.org/2000/svg"><path d="M83.705 2.039c.323-2.719 4.267-2.719 4.59 0l2.706 22.804c3.494 29.446 26.71 52.662 56.156 56.156l22.804 2.706c2.719.323 2.719 4.267 0 4.59l-22.804 2.706c-29.446 3.494-52.662 26.71-56.156 56.156l-2.706 22.804c-.323 2.719-4.267 2.719-4.59 0l-2.706-22.804c-3.494-29.446-26.71-52.662-56.156-56.156L2.039 88.295c-2.719-.323-2.719-4.267 0-4.59l22.804-2.706c29.446-3.494 52.662-26.71 56.156-56.156l2.706-22.804Z" fill="#F8841D"/></svg>